<?xml version="1.0" encoding="UTF-8" standalone="no"?>
<!DOCTYPE svg PUBLIC "-//W3C//DTD SVG 1.1//EN"
 "http://www.w3.org/Graphics/SVG/1.1/DTD/svg11.dtd">
<!-- Generated by graphviz version 2.38.0 (20140413.2041)
 -->
<!-- Title: G Pages: 1 -->
<svg width="208pt" height="240pt"
 viewBox="0.00 0.00 208.00 240.00" xmlns="http://www.w3.org/2000/svg" xmlns:xlink="http://www.w3.org/1999/xlink">
<g id="graph0" class="graph" transform="scale(1 1) rotate(0) translate(4 236)">
<title>G</title>
<polygon fill="white" stroke="none" points="-4,4 -4,-236 204,-236 204,4 -4,4"/>
<g id="clust1" class="cluster"><title>cluster_Global</title>
<path fill="none" stroke="gray" d="M20,-8C20,-8 180,-8 180,-8 186,-8 192,-14 192,-20 192,-20 192,-212 192,-212 192,-218 186,-224 180,-224 180,-224 20,-224 20,-224 14,-224 8,-218 8,-212 8,-212 8,-20 8,-20 8,-14 14,-8 20,-8"/>
<text text-anchor="middle" x="100" y="-211.2" font-family="Times,serif" font-size="11.00" fill="gray">Global</text>
</g>
<g id="clust2" class="cluster"><title>cluster_\Chadicus</title>
<path fill="none" stroke="gray" d="M28,-16C28,-16 172,-16 172,-16 178,-16 184,-22 184,-28 184,-28 184,-184 184,-184 184,-190 178,-196 172,-196 172,-196 28,-196 28,-196 22,-196 16,-190 16,-184 16,-184 16,-28 16,-28 16,-22 22,-16 28,-16"/>
<text text-anchor="middle" x="100" y="-183.2" font-family="Times,serif" font-size="11.00" fill="gray">Chadicus</text>
</g>
<g id="clust3" class="cluster"><title>cluster_\Chadicus\Slim</title>
<path fill="none" stroke="gray" d="M36,-24C36,-24 164,-24 164,-24 170,-24 176,-30 176,-36 176,-36 176,-156 176,-156 176,-162 170,-168 164,-168 164,-168 36,-168 36,-168 30,-168 24,-162 24,-156 24,-156 24,-36 24,-36 24,-30 30,-24 36,-24"/>
<text text-anchor="middle" x="100" y="-155.2" font-family="Times,serif" font-size="11.00" fill="gray">Slim</text>
</g>
<g id="clust4" class="cluster"><title>cluster_\Chadicus\Slim\OAuth2</title>
<path fill="none" stroke="gray" d="M44,-32C44,-32 156,-32 156,-32 162,-32 168,-38 168,-44 168,-44 168,-128 168,-128 168,-134 162,-140 156,-140 156,-140 44,-140 44,-140 38,-140 32,-134 32,-128 32,-128 32,-44 32,-44 32,-38 38,-32 44,-32"/>
<text text-anchor="middle" x="100" y="-127.2" font-family="Times,serif" font-size="11.00" fill="gray">OAuth2</text>
</g>
<g id="clust5" class="cluster"><title>cluster_\Chadicus\Slim\OAuth2\Http</title>
<path fill="none" stroke="gray" d="M52,-40C52,-40 148,-40 148,-40 154,-40 160,-46 160,-52 160,-52 160,-100 160,-100 160,-106 154,-112 148,-112 148,-112 52,-112 52,-112 46,-112 40,-106 40,-100 40,-100 40,-52 40,-52 40,-46 46,-40 52,-40"/>
<text text-anchor="middle" x="100" y="-99.2" font-family="Times,serif" font-size="11.00" fill="gray">Http</text>
</g>
<!-- \\Chadicus\\Slim\\OAuth2\\Http\\MessageBridge -->
<g id="node1" class="node"><title>\\Chadicus\\Slim\\OAuth2\\Http\\MessageBridge</title>
<polygon fill="none" stroke="black" points="152,-84 48,-84 48,-48 152,-48 152,-84"/>
<text text-anchor="middle" x="100" y="-63.2" font-family="Courier,monospace" font-size="11.00">MessageBridge</text>
</g>
</g>
</svg>
